<?xml version="1.0" ?><svg id="Layer_1" style="enable-background:new 0 0 512 512;" version="1.1" viewBox="0 0 512 512" xml:space="preserve" xmlns="http://www.w3.org/2000/svg" xmlns:xlink="http://www.w3.org/1999/xlink"><style type="text/css">
	.st0{fill:#EDE6DA;}
	.st1{fill:#837D6E;}
	.st2{fill:#514A3D;}
	.st3{fill:#FFFFFF;}
</style><g id="XMLID_162_"><g id="XMLID_73_"><polygon class="st0" id="XMLID_77_" points="330.7,6 87.9,6 87.9,506 449.2,506 449.2,122.8   "/><polygon class="st1" id="XMLID_76_" points="330.7,6 449.2,122.8 330.7,122.8   "/><rect class="st1" height="156.1" id="XMLID_75_" width="329" x="62.8" y="298.8"/><polygon class="st2" id="XMLID_74_" points="62.8,454.9 87.9,476.1 87.9,454.9   "/></g><g id="XMLID_3105_"><path class="st3" d="M183.9,393c0-1.2-0.7-2.3-2.1-3.3c-1.4-1-3.9-1.8-7.5-2.6c-5.7-1.1-10.1-2.9-13-5.2    c-2.9-2.4-4.4-5.6-4.4-9.7c0-4.3,1.8-8,5.5-11c3.6-3,8.6-4.5,14.8-4.5c6.6,0,11.8,1.5,15.7,4.4c3.9,2.9,5.7,6.7,5.6,11.4l-0.1,0.3    h-14.9c0-1.9-0.5-3.4-1.5-4.4c-1-1-2.6-1.5-4.8-1.5c-1.6,0-3,0.4-4.1,1.3c-1.1,0.9-1.6,2-1.6,3.4c0,1.3,0.6,2.4,1.9,3.3    c1.3,0.9,3.8,1.7,7.6,2.5c6,1.2,10.5,3,13.4,5.3c2.9,2.4,4.3,5.7,4.3,10c0,4.4-2,8.1-5.9,11c-3.9,2.9-9.1,4.3-15.6,4.3    c-6.7,0-12-1.7-15.9-5.1c-3.9-3.4-5.8-7.2-5.6-11.4l0.1-0.3h13.9c0.1,2.3,0.8,4,2.1,5.1c1.4,1,3.3,1.5,5.8,1.5    c2.1,0,3.6-0.4,4.7-1.2C183.4,395.6,183.9,394.5,183.9,393z" id="XMLID_2935_"/><path class="st3" d="M210.5,382.3c0-7.7,1.7-13.9,5-18.6c3.4-4.7,8.1-7.1,14.2-7.1c2.6,0,4.9,0.6,6.8,1.8    c2,1.2,3.7,3,5.1,5.2l1.2-6.1h13.4v68.2h-15.4v-23.5c-1.4,1.8-3,3.2-4.9,4.1c-1.9,0.9-4,1.4-6.4,1.4c-6.1,0-10.8-2.2-14.1-6.7    c-3.3-4.5-5-10.4-5-17.8V382.3z M225.9,383.2c0,4,0.6,7.1,1.8,9.4c1.2,2.2,3.1,3.3,5.9,3.3c1.7,0,3.2-0.3,4.4-0.8    c1.2-0.5,2.2-1.3,3-2.4v-20.5c-0.8-1.2-1.7-2.2-2.9-2.8c-1.2-0.6-2.6-1-4.3-1c-2.7,0-4.7,1.3-5.9,3.8c-1.2,2.5-1.8,5.9-1.8,10    V383.2z" id="XMLID_2937_"/><path class="st3" d="M287.6,406.8h-15.4v-71.1h15.4V406.8z" id="XMLID_2940_"/></g></g></svg>